<svg width="337" height="64" viewBox="0 0 337 64" fill="none" xmlns="http://www.w3.org/2000/svg">
<path d="M53.0625 62.8438C48.7812 62.8438 45.4219 62.1406 42.9844 60.7344C40.3594 59.2656 38.9375 57.1875 38.7188 54.5L38.2969 50.0938C41.1719 49.4062 43.5938 47.625 45.5625 44.75C46.0938 43.9375 46.3594 43.2344 46.3594 42.6406C46.3594 41.8281 45.9531 41.4219 45.1406 41.4219H45C44.9688 41.4531 44.9062 41.4688 44.8125 41.4688C42.625 46.0625 39.0781 48.3594 34.1719 48.3594C31.6719 48.3594 29.5312 47.8125 27.75 46.7188C26 45.625 24.3906 43.7344 22.9219 41.0469H22.6406C21.7969 41.0469 21.375 41.4062 21.375 42.125C21.375 42.625 21.5625 43.1875 21.9375 43.8125C23.1875 45.9062 24.75 47.5469 26.625 48.7344C28.0938 49.7344 29.6406 50.3281 31.2656 50.5156L30.8906 59.375C29.0156 60.5938 27.0312 61.4688 24.9375 62C22.875 62.5625 19.9219 62.8438 16.0781 62.8438C12.2656 62.8438 8.85938 62.0938 5.85938 60.5938C2.17188 58.75 0.328125 56.1875 0.328125 52.9062C0.328125 48.8125 1.14062 38.7031 2.76562 22.5781C3.64062 14.1719 4.34375 8.29688 4.875 4.95312C8.09375 2.07812 12.8438 0.640625 19.125 0.640625C23.6875 0.640625 27.4688 1.48438 30.4688 3.17188L33.0469 11.7969L31.4062 18.6875C31.2812 19.1562 31.2188 19.6094 31.2188 20.0469C31.2188 21.1406 31.8438 21.7031 33.0938 21.7344L37.5469 3.21875C38.8281 2.53125 40.5 1.9375 42.5625 1.4375C44.625 0.90625 46.875 0.640625 49.3125 0.640625C53.875 0.640625 57.25 1.42188 59.4375 2.98438C61.6562 4.51562 62.9688 7.10938 63.375 10.7656C63.4688 11.4531 63.6094 12.5938 63.7969 14.1875C66.6406 38.625 68.0625 53.0156 68.0625 57.3594C64.5938 61.0156 59.5938 62.8438 53.0625 62.8438ZM101.391 29.6562C101.391 26.5312 101.25 24.3906 100.969 23.2344C100.688 22.0469 100.172 21.4531 99.4219 21.4531C98.9531 21.4531 98.5312 21.6094 98.1562 21.9219C98.2188 22.4844 98.3125 23.2344 98.4375 24.1719C98.5625 25.1094 98.625 27.1094 98.625 30.1719V33.2188C98.625 35.3438 98.5781 36.8906 98.4844 37.8594C98.3906 38.8281 98.3125 39.6562 98.25 40.3438C98.2188 40.7188 98.1875 41.0938 98.1562 41.4688C98.5312 41.7812 98.9531 41.9375 99.4219 41.9375C100.172 41.9375 100.688 41.3594 100.969 40.2031C101.25 39.0156 101.391 36.8594 101.391 33.7344V29.6562ZM99.5156 63.5C93.9531 63.5 88.8438 62.3594 84.1875 60.0781C79.5625 57.7656 75.8281 54.25 72.9844 49.5312C70.1406 44.7812 68.7188 38.8594 68.7188 31.7656C68.7188 21.4844 71.8125 13.4531 78 7.67188C83.5 2.57812 90.5781 0.03125 99.2344 0.03125C108.641 0.03125 116.078 2.95312 121.547 8.79688C127.047 14.6094 129.797 22.2656 129.797 31.7656C129.797 42.3281 126.859 50.3906 120.984 55.9531C115.641 60.9844 108.484 63.5 99.5156 63.5ZM164.578 29.6562C164.578 26.5312 164.438 24.3906 164.156 23.2344C163.875 22.0469 163.359 21.4531 162.609 21.4531C162.141 21.4531 161.719 21.6094 161.344 21.9219C161.406 22.4844 161.5 23.2344 161.625 24.1719C161.75 25.1094 161.812 27.1094 161.812 30.1719V33.2188C161.812 35.3438 161.766 36.8906 161.672 37.8594C161.578 38.8281 161.5 39.6562 161.438 40.3438C161.406 40.7188 161.375 41.0938 161.344 41.4688C161.719 41.7812 162.141 41.9375 162.609 41.9375C163.359 41.9375 163.875 41.3594 164.156 40.2031C164.438 39.0156 164.578 36.8594 164.578 33.7344V29.6562ZM162.703 63.5C157.141 63.5 152.031 62.3594 147.375 60.0781C142.75 57.7656 139.016 54.25 136.172 49.5312C133.328 44.7812 131.906 38.8594 131.906 31.7656C131.906 21.4844 135 13.4531 141.188 7.67188C146.688 2.57812 153.766 0.03125 162.422 0.03125C171.828 0.03125 179.266 2.95312 184.734 8.79688C190.234 14.6094 192.984 22.2656 192.984 31.7656C192.984 42.3281 190.047 50.3906 184.172 55.9531C178.828 60.9844 171.672 63.5 162.703 63.5ZM194.391 12.4062C194.391 9.84375 194.797 7.64062 195.609 5.79688C196.453 3.92188 197.438 2.5 198.562 1.53125H241.453C242.578 2.71875 243.594 4.48438 244.5 6.82812C245.406 9.17188 245.859 12.0625 245.859 15.5C245.859 17.4062 245.75 18.7812 245.531 19.625C245.344 20.4375 245.141 21.125 244.922 21.6875C244.703 22.25 244.484 22.8438 244.266 23.4688C240.953 28.1562 236.781 32.875 231.75 37.625C227.219 37.7812 223.844 38.1719 221.625 38.7969C219.438 39.3906 218.344 40.125 218.344 41C218.344 41.375 218.5 41.7344 218.812 42.0781C220.344 41.4219 222.438 40.875 225.094 40.4375C227.781 39.9688 230.375 39.7344 232.875 39.7344H243.422C245.516 43.4531 246.562 46.9688 246.562 50.2812C246.562 53.5938 245.828 56.125 244.359 57.875C242.891 59.625 241.062 60.7812 238.875 61.3438C237.281 61.7812 235.297 62 232.922 62H198.562C195.312 58.625 193.688 53.3438 193.688 46.1562C193.688 44.5625 193.844 43.0781 194.156 41.7031C196.938 38.3906 200.188 34.75 203.906 30.7812C207.625 26.8125 211.125 23.2656 214.406 20.1406C214.281 19.4531 213.859 19.1094 213.141 19.1094C212.703 19.1094 212.109 19.4062 211.359 20C210.609 20.5938 209.453 21.7344 207.891 23.4219H197.812C195.531 19.8281 194.391 16.1562 194.391 12.4062ZM276 10.0156V58.4375C274.562 59.6875 272.641 60.7344 270.234 61.5781C267.828 62.4219 264.906 62.8438 261.469 62.8438C258.031 62.8438 255.109 62.0781 252.703 60.5469C249.984 58.8906 248.625 56.5469 248.625 53.5156V5.09375C250.062 3.84375 251.984 2.79688 254.391 1.95312C256.797 1.10938 259.703 0.6875 263.109 0.6875C266.516 0.6875 269.469 1.4375 271.969 2.9375C274.656 4.65625 276 7.01562 276 10.0156ZM309.375 43.3438C309.688 43.3438 309.969 43.2656 310.219 43.1094V38.8438C312.344 37.4062 315.312 36.2344 319.125 35.3281C322.969 34.4219 326.703 33.9688 330.328 33.9688C331.984 35.6562 333.359 38.1875 334.453 41.5625C335.578 44.9062 336.172 47.9375 336.234 50.6562C335.609 51.9062 334.547 53.25 333.047 54.6875C331.578 56.125 329.797 57.4531 327.703 58.6719C322.516 61.7344 316.562 63.2656 309.844 63.2656C300.219 63.2656 292.641 60.4688 287.109 54.875C281.391 49.2188 278.531 41.3906 278.531 31.3906C278.531 21.3594 281.656 13.4844 287.906 7.76562C290.656 5.20312 293.859 3.28125 297.516 2C301.172 0.6875 305.016 0.03125 309.047 0.03125C316.922 0.03125 323.375 1.9375 328.406 5.75C333.438 9.5625 335.953 14.2656 335.953 19.8594C335.953 24.0781 334.656 27.2031 332.062 29.2344C329.469 31.2344 325.953 32.2344 321.516 32.2344C319.078 32.2344 316.625 31.6406 314.156 30.4531C311.688 29.2344 310.219 28.0938 309.75 27.0312C309.75 24.4688 309.797 22.4531 309.891 20.9844C309.828 20.9531 309.719 20.9375 309.562 20.9375H309.234C308.766 20.9375 308.391 21.0781 308.109 21.3594C307.859 21.6094 307.625 22.1562 307.406 23C307.219 23.8438 307.125 26.1406 307.125 29.8906C307.125 38.8594 307.875 43.3438 309.375 43.3438Z" fill="#88D3CD"/>
</svg>
